<svg width="20" height="17" viewBox="0 0 20 17" fill="none" xmlns="http://www.w3.org/2000/svg">
<path d="M16.225 4.49688L14.7375 3.00938C14.4083 2.68307 13.9635 2.5 13.5 2.5H6.4125C5.95 2.5 5.50313 2.68438 5.175 3.00938L3.6875 4.49688H0V12.4875H2C2.55 12.4875 2.99375 12.0437 2.99688 11.4969H3.28125L5.925 13.8844C6.89062 14.6687 8.23125 14.6875 9.225 14.0031C9.61563 14.3406 10.0375 14.5 10.5094 14.5C11.0781 14.5 11.6125 14.2688 12.0344 13.75C12.725 14.0219 13.5406 13.8313 14.0344 13.225L14.8531 12.2156C15.0281 12 15.1375 11.7531 15.1938 11.4969H17.0031C17.0062 12.0437 17.4531 12.4875 18 12.4875H20V4.49688H16.225ZM1.5 11.4875C1.225 11.4875 1 11.2625 1 10.9875C1 10.7125 1.225 10.4875 1.5 10.4875C1.775 10.4875 2 10.7125 2 10.9875C2 11.2656 1.775 11.4875 1.5 11.4875ZM13.6875 11.2719L12.8719 12.2781C12.7844 12.3844 12.6281 12.4031 12.5188 12.3156L11.7719 11.7094L10.8344 12.85C10.6469 13.0781 10.3656 13 10.2719 12.925L9.12187 11.9406L8.63437 12.5406C8.2 13.075 7.40938 13.1562 6.90625 12.7469L3.86562 9.99687H3V5.99375H4.30937L6.2375 4.06875C6.3 4.04375 6.35313 4.02188 6.41563 3.99688H8.1875L6.97813 5.10625C6.05938 5.94687 6.00625 7.36562 6.84062 8.27187C7.30312 8.77812 8.75313 9.55938 10.0125 8.40938L10.2688 8.175L13.65 10.9187C13.7562 11.0062 13.7719 11.1656 13.6875 11.2719ZM17 9.99687H14.8375C14.7656 9.90937 14.6844 9.82813 14.5969 9.75625L11.3875 7.15L11.7781 6.79375C11.9812 6.60625 11.9969 6.29063 11.8094 6.0875L11.4688 5.72188C11.2812 5.51875 10.9656 5.50625 10.7625 5.69063L9.0375 7.27187C8.74063 7.54375 8.23438 7.56562 7.95625 7.27187C7.66563 6.9625 7.69063 6.4875 7.99375 6.2125L10.0437 4.33437C10.275 4.12187 10.575 4.00625 10.8875 4.00625L13.5031 4C13.5688 4 13.6313 4.025 13.675 4.07188L15.6031 5.99687H17V9.99687ZM18.5 11.4875C18.225 11.4875 18 11.2625 18 10.9875C18 10.7125 18.225 10.4875 18.5 10.4875C18.775 10.4875 19 10.7125 19 10.9875C19 11.2656 18.775 11.4875 18.5 11.4875Z" fill="#424750"/>
</svg>
