<svg width="25" height="24" viewBox="0 0 25 24" fill="none" xmlns="http://www.w3.org/2000/svg">
<path d="M10.3571 13C10.7866 13.5741 11.3345 14.0491 11.9637 14.3929C12.5929 14.7367 13.2887 14.9411 14.0038 14.9923C14.7189 15.0435 15.4367 14.9403 16.1085 14.6897C16.7803 14.4392 17.3903 14.047 17.8971 13.54L20.8971 10.54C21.8079 9.59695 22.3119 8.33394 22.3005 7.02296C22.2891 5.71198 21.7633 4.45791 20.8362 3.53087C19.9092 2.60383 18.6551 2.07799 17.3442 2.0666C16.0332 2.0552 14.7702 2.55918 13.8271 3.46997L12.1071 5.17997" stroke="#0B90FB" stroke-width="2" stroke-linecap="round" stroke-linejoin="round"/>
<path d="M14.3571 11C13.9277 10.4259 13.3798 9.9508 12.7506 9.60704C12.1214 9.26328 11.4256 9.05886 10.7105 9.00765C9.99534 8.95643 9.27755 9.05961 8.60579 9.3102C7.93403 9.56079 7.32402 9.95291 6.81713 10.46L3.81713 13.46C2.90634 14.403 2.40237 15.666 2.41376 16.977C2.42516 18.288 2.951 19.542 3.87804 20.4691C4.80508 21.3961 6.05914 21.922 7.37013 21.9334C8.68111 21.9447 9.94412 21.4408 10.8871 20.53L12.5971 18.82" stroke="#0B90FB" stroke-width="2" stroke-linecap="round" stroke-linejoin="round"/>
</svg>
