<svg width="640" height="512" viewBox="0 0 640 512" fill="none" xmlns="http://www.w3.org/2000/svg">
<path d="M608 64H32C14.33 64 0 78.33 0 96V416C0 433.67 14.33 448 32 448H608C625.67 448 640 433.67 640 416V96C640 78.33 625.67 64 608 64ZM592 336C556.65 336 528 364.65 528 400H112C112 364.65 83.35 336 48 336V176C83.35 176 112 147.35 112 112H528C528 147.35 556.65 176 592 176V336ZM320 160C275.82 160 240 202.98 240 256C240 309.01 275.81 352 320 352C364.17 352 400 309.03 400 256C400 202.98 364.18 160 320 160Z" fill="#19BFD3"/>
</svg>
