<svg width="180" height="180" viewBox="0 0 180 180" fill="none" xmlns="http://www.w3.org/2000/svg">
<g clip-path="url(#clip0_11_92)">
<path d="M118.503 164.757C132.417 161.685 145.042 154.158 151.828 142.48C162.735 123.719 152.218 114.73 156.892 97.9242C159.502 88.5441 167.472 84.2019 172.817 76.7799C195.691 45.0205 159.806 -4.55716 123.314 0.336118C118.489 0.93083 113.844 2.53817 109.68 5.05352C104.951 7.96135 100.564 12.3465 94.764 12.8703C88.4962 13.4253 82.1701 10.1344 76.6658 7.56269C62.8059 1.10216 43.9948 -2.30203 29.2078 3.26349C18.1642 7.39073 13.4157 17.318 12.7613 28.5897C12.1069 39.8615 16.8164 52.122 14.709 63.1397C12.5509 74.4036 3.96541 83.5766 1.18797 94.8366C-0.648715 102.331 -0.335517 110.194 2.09141 117.518C4.51833 124.841 8.96003 131.327 14.9038 136.226C28.491 147.4 45.7205 144.195 61.3256 149.952C70.2851 153.259 76.4944 160.818 85.9253 163.706C96.4079 166.926 107.81 167.102 118.503 164.757Z" fill="#90CAF9"/>
<path opacity="0.7" d="M118.503 164.757C132.417 161.685 145.042 154.158 151.828 142.48C162.735 123.719 152.218 114.73 156.892 97.9242C159.502 88.5441 167.472 84.2019 172.817 76.7799C195.691 45.0205 159.806 -4.55716 123.314 0.336118C118.489 0.93083 113.844 2.53817 109.68 5.05352C104.951 7.96135 100.564 12.3465 94.764 12.8703C88.4962 13.4253 82.1701 10.1344 76.6658 7.56269C62.8059 1.10216 43.9948 -2.30203 29.2078 3.26349C18.1642 7.39073 13.4157 17.318 12.7613 28.5897C12.1069 39.8615 16.8164 52.122 14.709 63.1397C12.5509 74.4036 3.96541 83.5766 1.18797 94.8366C-0.648715 102.331 -0.335517 110.194 2.09141 117.518C4.51833 124.841 8.96003 131.327 14.9038 136.226C28.491 147.4 45.7205 144.195 61.3256 149.952C70.2851 153.259 76.4944 160.818 85.9253 163.706C96.4079 166.926 107.81 167.102 118.503 164.757Z" fill="white"/>
<path d="M89.6962 180C119.278 180 143.258 178.425 143.258 176.482C143.258 174.54 119.278 172.965 89.6962 172.965C60.1146 172.965 36.134 174.54 36.134 176.482C36.134 178.425 60.1146 180 89.6962 180Z" fill="#4D6A67"/>
<path d="M36.5236 152.051C37.2715 152.376 39.0984 152.337 39.0984 152.337C39.0984 152.337 38.7089 151.137 38.6738 151.062C38.2843 150.222 37.0066 148.835 35.9743 148.975C35.8019 149.003 35.6373 149.067 35.4914 149.163C35.3455 149.259 35.2217 149.385 35.1281 149.533C35.0345 149.681 34.9733 149.847 34.9487 150.02C34.924 150.194 34.9363 150.37 34.9849 150.539C35.1524 151.238 35.8847 151.77 36.5236 152.051Z" fill="#4D6A67"/>
<path d="M37.1508 157.355C37.9299 157.468 39.5543 156.995 39.6867 156.964C39.9542 157.897 40.2835 158.811 40.6723 159.7C40.8982 160.22 41.1397 160.74 41.389 161.263C41.241 161.048 41.1047 160.872 41.0813 160.826C40.4736 160.122 38.8882 159.118 37.9299 159.528C37.7727 159.6 37.6325 159.705 37.5183 159.835C37.4041 159.965 37.3185 160.118 37.267 160.283C37.2156 160.449 37.1995 160.623 37.2197 160.796C37.24 160.968 37.2961 161.134 37.3845 161.283C37.739 161.928 38.5843 162.248 39.2738 162.346C39.9633 162.444 41.3657 162.072 41.7357 161.955C41.8331 162.154 41.9266 162.346 42.024 162.545C42.4992 163.491 42.9706 164.429 43.4108 165.363C43.5627 165.691 43.7029 166.024 43.8471 166.352C43.7146 166.157 43.6016 165.996 43.5822 165.961C42.9745 165.258 41.3851 164.253 40.4269 164.66C40.2701 164.732 40.1303 164.837 40.0165 164.967C39.9026 165.097 39.8172 165.25 39.7658 165.416C39.7145 165.581 39.6982 165.755 39.7181 165.927C39.738 166.099 39.7937 166.265 39.8815 166.414C40.236 167.063 41.0852 167.38 41.7708 167.481C42.4564 167.583 43.7185 167.243 44.1665 167.122C44.2989 167.462 44.4353 167.806 44.556 168.142C44.6261 168.376 44.7157 168.591 44.7742 168.83C44.8326 169.068 44.9027 169.295 44.9689 169.526C45.0741 169.971 45.1871 170.432 45.2806 170.866C45.3468 171.171 45.4052 171.464 45.4676 171.757C45.3156 171.425 45.0079 170.788 44.9767 170.737C44.482 169.955 43.0641 168.713 42.0591 168.971C41.8928 169.018 41.7383 169.1 41.6057 169.212C41.4731 169.323 41.3653 169.461 41.2893 169.617C41.2133 169.773 41.1708 169.943 41.1644 170.117C41.1581 170.29 41.1882 170.463 41.2527 170.624C41.5059 171.316 42.2928 171.761 42.9589 171.964C43.6873 172.187 45.2962 171.964 45.5065 171.964C45.6039 172.449 45.6935 172.922 45.7714 173.367C45.9467 174.352 46.0752 175.24 46.1609 175.986H46.8426C46.7219 175.204 46.5661 174.29 46.3635 173.25C46.2661 172.758 46.1531 172.234 46.0324 171.687C46.5194 171.492 46.9942 171.267 47.4542 171.015C47.9879 171.593 49.3513 172.273 49.5266 172.359C49.3396 172.816 49.1565 173.258 48.9734 173.676C48.5839 174.548 48.2411 175.318 47.9217 175.974H48.6618C48.9306 175.369 49.2305 174.681 49.5422 173.915C49.733 173.453 49.9317 172.953 50.1226 172.437C50.3174 172.476 51.9184 172.805 52.6663 172.637C53.3402 172.48 54.1622 172.097 54.4621 171.425C54.5389 171.27 54.5822 171.1 54.5892 170.927C54.5962 170.754 54.5668 170.582 54.5028 170.421C54.4388 170.26 54.3418 170.115 54.218 169.994C54.0942 169.873 53.9464 169.78 53.7843 169.721C52.7987 169.389 51.2951 170.503 50.742 171.261C50.7108 171.304 50.4108 171.824 50.2278 172.156C50.3057 171.945 50.3836 171.742 50.4615 171.523C50.6173 171.093 50.7614 170.659 50.9212 170.19C50.9874 169.963 51.0575 169.733 51.1276 169.502C51.1977 169.272 51.2484 169.021 51.3107 168.779C51.447 168.212 51.5522 167.634 51.6496 167.048C52.0391 167.184 53.3675 167.653 54.0648 167.607C54.762 167.56 55.6229 167.302 56.0125 166.684C56.1116 166.542 56.1799 166.381 56.2128 166.211C56.2458 166.041 56.2427 165.866 56.2037 165.697C56.1648 165.528 56.0909 165.369 55.9868 165.231C55.8827 165.093 55.7508 164.978 55.5996 164.894C54.6725 164.413 53.0169 165.285 52.3586 165.953C52.3157 165.996 51.8989 166.52 51.673 166.813C51.7275 166.461 51.7859 166.11 51.8288 165.75C51.9573 164.714 52.0547 163.663 52.156 162.623C52.1872 162.303 52.2222 161.982 52.2573 161.662C52.3897 161.713 53.9713 162.303 54.7504 162.248C55.4437 162.201 56.3085 161.947 56.6981 161.33C56.7971 161.188 56.8651 161.026 56.8978 160.856C56.9304 160.686 56.927 160.51 56.8877 160.341C56.8484 160.173 56.774 160.014 56.6696 159.876C56.5651 159.738 56.4328 159.623 56.2813 159.54C55.358 159.059 53.7025 159.93 53.0442 160.599C52.9935 160.65 52.3897 161.404 52.2651 161.603C52.3391 160.9 52.4209 160.196 52.53 159.508C52.6697 158.584 52.8701 157.67 53.1299 156.773C53.1883 156.796 54.84 157.421 55.6385 157.367C56.328 157.316 57.1967 157.062 57.5862 156.444C57.6854 156.302 57.7536 156.141 57.7866 155.971C57.8195 155.801 57.8164 155.626 57.7775 155.457C57.7386 155.288 57.6646 155.129 57.5605 154.991C57.4564 154.853 57.3245 154.738 57.1733 154.654C56.2462 154.173 54.5906 155.045 53.9323 155.713C53.8817 155.764 53.2311 156.581 53.126 156.737C53.126 156.683 53.1532 156.628 53.1688 156.573C53.453 155.674 53.8167 154.801 54.2556 153.966C54.4933 153.501 54.7426 153.071 54.9997 152.657C55.2957 152.806 56.6513 153.466 57.3759 153.497C58.1004 153.529 58.9574 153.368 59.4249 152.798C59.539 152.668 59.6246 152.515 59.6761 152.349C59.7275 152.184 59.7437 152.009 59.7234 151.837C59.7032 151.665 59.6471 151.499 59.5588 151.35C59.4704 151.201 59.3518 151.072 59.2106 150.973C58.3419 150.394 56.5968 151.09 55.8722 151.668C55.8333 151.699 55.4827 152.059 55.2022 152.337C55.323 152.153 55.4399 151.946 55.5567 151.785C55.993 151.129 56.4293 150.55 56.8227 150.046C57.0487 149.761 57.259 149.507 57.4577 149.265C57.82 149.265 59.2924 149.214 59.9352 148.913C60.5779 148.612 61.283 148.065 61.4349 147.349C61.4758 147.181 61.4811 147.006 61.4504 146.836C61.4197 146.666 61.3538 146.504 61.257 146.36C61.1601 146.217 61.0343 146.096 60.8878 146.004C60.7414 145.913 60.5774 145.853 60.4065 145.829C59.3703 145.72 58.1433 147.142 57.7654 147.99C57.7304 148.065 57.3525 149.276 57.3759 149.276H57.3993C57.2006 149.499 57.0097 149.737 56.776 150.007C56.3864 150.507 55.9151 151.074 55.4671 151.723C54.973 152.419 54.5204 153.143 54.1115 153.892C53.6439 154.726 53.2527 155.602 52.9429 156.507C52.9429 156.507 52.9429 156.53 52.9429 156.542C52.9429 156.237 52.9429 155.369 52.9234 155.315C52.8065 154.388 52.0352 152.677 51.0107 152.485C50.8392 152.458 50.6638 152.467 50.4963 152.513C50.3287 152.559 50.1727 152.64 50.0387 152.751C49.9047 152.862 49.7956 153 49.7187 153.156C49.6419 153.313 49.599 153.483 49.5928 153.658C49.5305 154.392 50.0603 155.127 50.5784 155.612C51.1627 156.135 52.7832 156.64 52.9156 156.679C52.6259 157.609 52.3969 158.556 52.23 159.516C52.1326 160.075 52.0508 160.638 51.9729 161.209C51.9729 160.943 51.9729 160.704 51.9729 160.673C51.8522 159.747 51.0809 158.035 50.0564 157.843C49.8848 157.816 49.7094 157.826 49.5419 157.872C49.3743 157.918 49.2183 157.999 49.0843 158.109C48.9503 158.22 48.8412 158.358 48.7644 158.515C48.6875 158.671 48.6446 158.842 48.6384 159.016C48.5761 159.751 49.1098 160.485 49.624 160.951C50.1382 161.416 51.521 161.881 51.8872 161.998L51.8054 162.651C51.6808 163.698 51.56 164.742 51.4159 165.777C51.3652 166.137 51.299 166.489 51.2367 166.844C51.2367 166.61 51.2367 166.411 51.2367 166.379C51.1198 165.457 50.3485 163.741 49.324 163.55C49.1526 163.524 48.9777 163.534 48.8107 163.581C48.6437 163.627 48.4882 163.708 48.3545 163.819C48.2207 163.929 48.1117 164.067 48.0344 164.223C47.9572 164.378 47.9134 164.548 47.9061 164.722C47.8438 165.453 48.3735 166.192 48.8916 166.653C49.4097 167.114 50.6563 167.54 51.0887 167.681C51.0146 168.04 50.9367 168.4 50.8471 168.744C50.7809 168.978 50.7342 169.209 50.6524 169.44C50.5706 169.67 50.5043 169.901 50.4342 170.127C50.2784 170.557 50.1187 171.003 49.9551 171.421C49.846 171.71 49.733 171.984 49.6201 172.261C49.6785 171.906 49.772 171.202 49.7759 171.14C49.7652 170.316 49.5439 169.508 49.1331 168.795C49.141 168.704 49.141 168.612 49.1331 168.521C49.1116 168.349 49.0541 168.183 48.9644 168.035C48.8747 167.886 48.7548 167.758 48.6126 167.66C48.4703 167.561 48.3089 167.493 48.1389 167.461C47.9688 167.429 47.7939 167.433 47.6256 167.474C46.6206 167.739 45.9856 169.51 45.9389 170.44C45.9389 170.495 45.9701 171.097 45.9973 171.472C45.9467 171.253 45.8999 171.042 45.8454 170.815C45.7402 170.37 45.6234 169.928 45.4987 169.451L45.2884 168.76C45.226 168.529 45.1287 168.291 45.0468 168.056C44.8482 167.509 44.6183 166.966 44.3768 166.426C44.7664 166.332 46.1454 165.981 46.7141 165.555C47.2828 165.129 47.8204 164.367 47.8204 163.64C47.8253 163.466 47.7938 163.294 47.7279 163.133C47.662 162.973 47.5631 162.828 47.4378 162.709C47.3125 162.59 47.1635 162.498 47.0006 162.44C46.8376 162.382 46.6644 162.359 46.492 162.373C45.4598 162.487 44.5443 164.14 44.3729 165.05C44.3729 165.109 44.2989 165.777 44.2755 166.149C44.1275 165.824 43.9795 165.5 43.8198 165.176C43.3562 164.241 42.8615 163.311 42.3707 162.381C42.2188 162.096 42.0707 161.807 41.9227 161.521C42.0629 161.49 43.7068 161.107 44.3262 160.63C44.8793 160.208 45.4637 159.516 45.4559 158.778C45.4602 158.605 45.4283 158.432 45.3621 158.273C45.296 158.113 45.1971 157.969 45.0718 157.85C44.9466 157.731 44.7978 157.639 44.6351 157.582C44.4724 157.524 44.2995 157.501 44.1275 157.515C43.0952 157.625 42.1798 159.278 42.0084 160.192C42.0084 160.259 41.9071 161.224 41.8954 161.47C41.5721 160.841 41.2527 160.212 40.9644 159.579C40.57 158.725 40.2304 157.846 39.9477 156.948C40.014 156.948 41.7318 156.558 42.3668 156.053C42.916 155.627 43.5004 154.936 43.4965 154.201C43.5008 154.027 43.4688 153.855 43.4024 153.694C43.3361 153.534 43.2369 153.39 43.1113 153.27C42.9857 153.151 42.8364 153.059 42.6733 153.001C42.5101 152.944 42.3367 152.921 42.1642 152.935C41.1319 153.048 40.2165 154.701 40.049 155.612C40.049 155.686 39.9399 156.722 39.936 156.909C39.936 156.859 39.8971 156.808 39.8815 156.753C39.6243 155.846 39.4483 154.917 39.3556 153.978C39.2972 153.458 39.2699 152.962 39.2582 152.473C39.5855 152.434 41.0813 152.235 41.7007 151.86C42.32 151.485 42.9472 150.875 43.0251 150.14C43.0486 149.969 43.0363 149.796 42.989 149.63C42.9417 149.465 42.8604 149.311 42.7503 149.179C42.6403 149.047 42.5039 148.939 42.35 148.863C42.196 148.787 42.028 148.744 41.8565 148.737C40.8164 148.737 39.7452 150.281 39.4569 151.164C39.4569 151.215 39.3361 151.723 39.266 152.094C39.266 151.871 39.266 151.649 39.266 151.438C39.266 150.656 39.3167 149.925 39.3634 149.284C39.3946 148.921 39.4296 148.592 39.4686 148.287C39.7685 148.08 40.9722 147.228 41.3423 146.619C41.7124 146.009 41.9967 145.169 41.7318 144.481C41.6736 144.318 41.5819 144.169 41.4625 144.043C41.3432 143.918 41.1989 143.82 41.0391 143.754C40.8793 143.688 40.7075 143.657 40.5349 143.663C40.3623 143.668 40.1928 143.71 40.0373 143.785C39.1141 144.262 38.8687 146.13 39.0245 147.049C39.0245 147.127 39.3868 148.346 39.4141 148.334C39.3751 148.627 39.3361 148.944 39.2972 149.292C39.2349 149.929 39.1686 150.652 39.1492 151.445C39.1206 152.299 39.1414 153.154 39.2115 154.005C39.2856 154.958 39.4433 155.902 39.6828 156.827V156.862C39.5192 156.604 39.0362 155.897 38.9933 155.846C38.3857 155.143 36.8002 154.138 35.8419 154.549C35.6848 154.621 35.5446 154.725 35.4304 154.856C35.3161 154.986 35.2305 155.139 35.1791 155.304C35.1276 155.47 35.1115 155.644 35.1318 155.816C35.152 155.989 35.2082 156.155 35.2966 156.304C35.6199 156.941 36.4652 157.253 37.1508 157.355Z" fill="#4D6A67"/>
<path d="M54.9879 152.454C54.9879 152.454 55.319 151.234 55.3307 151.156C55.4593 150.234 55.1671 148.373 54.2283 147.92C54.0708 147.849 53.9001 147.812 53.7274 147.811C53.5547 147.811 53.3838 147.847 53.2258 147.917C53.0678 147.987 52.9263 148.089 52.8104 148.218C52.6946 148.346 52.607 148.498 52.5533 148.663C52.304 149.354 52.6195 150.206 52.9974 150.789C53.4414 151.469 54.9879 152.45 54.9879 152.454Z" fill="#4D6A67"/>
<path d="M127.174 155.233C127.825 155.518 129.406 155.479 129.406 155.479C129.406 155.479 129.067 154.439 129.036 154.377C128.689 153.65 127.591 152.446 126.699 152.567C126.551 152.591 126.41 152.646 126.284 152.728C126.159 152.81 126.052 152.918 125.971 153.045C125.89 153.171 125.837 153.314 125.815 153.462C125.792 153.611 125.802 153.763 125.842 153.908C125.99 154.529 126.625 154.986 127.174 155.233Z" fill="#4D6A67"/>
<path d="M127.723 159.833C128.393 159.93 129.807 159.52 129.916 159.485C130.151 160.296 130.437 161.091 130.773 161.865C130.968 162.319 131.163 162.764 131.397 163.214C131.264 163.022 131.151 162.854 131.132 162.823C130.602 162.209 129.227 161.341 128.405 161.693C128.269 161.756 128.148 161.847 128.049 161.959C127.95 162.072 127.876 162.205 127.832 162.348C127.787 162.491 127.774 162.643 127.791 162.792C127.809 162.941 127.857 163.084 127.934 163.214C128.238 163.776 128.974 164.054 129.57 164.14C130.166 164.226 131.385 163.901 131.704 163.811L131.958 164.324C132.347 165.14 132.776 165.953 133.157 166.766C133.29 167.052 133.411 167.337 133.547 167.622L133.317 167.294C132.787 166.684 131.412 165.813 130.59 166.164C130.454 166.227 130.332 166.318 130.233 166.431C130.134 166.544 130.06 166.677 130.015 166.821C129.971 166.965 129.957 167.116 129.975 167.266C129.993 167.415 130.042 167.559 130.119 167.689C130.423 168.248 131.159 168.525 131.755 168.611C132.351 168.697 133.45 168.404 133.831 168.298C133.948 168.595 134.065 168.892 134.162 169.186C134.229 169.385 134.303 169.576 134.357 169.78C134.412 169.983 134.466 170.17 134.525 170.381C134.614 170.772 134.712 171.163 134.794 171.554C134.852 171.82 134.903 172.07 134.953 172.336C134.825 172.05 134.564 171.495 134.533 171.452C134.104 170.768 132.873 169.701 132.001 169.924C131.856 169.965 131.722 170.036 131.607 170.132C131.492 170.228 131.398 170.348 131.333 170.483C131.267 170.618 131.23 170.765 131.225 170.916C131.22 171.066 131.247 171.215 131.303 171.355C131.521 171.957 132.203 172.34 132.78 172.527C133.415 172.723 134.817 172.547 134.992 172.527C135.074 172.945 135.152 173.356 135.218 173.743C135.37 174.599 135.483 175.365 135.569 176.013H136.161C136.056 175.345 135.923 174.544 135.744 173.645C135.662 173.219 135.565 172.762 135.46 172.297C135.881 172.126 136.292 171.932 136.691 171.714C137.234 172.186 137.84 172.58 138.49 172.887C138.327 173.278 138.167 173.668 138.011 174.028C137.684 174.782 137.372 175.455 137.1 176.021H137.738C137.972 175.498 138.233 174.9 138.518 174.235C138.685 173.844 138.853 173.399 139.02 172.953C139.191 172.988 140.578 173.274 141.225 173.125C141.813 172.992 142.522 172.66 142.783 172.078C142.849 171.943 142.886 171.795 142.891 171.645C142.897 171.494 142.871 171.345 142.815 171.205C142.759 171.065 142.675 170.939 142.567 170.834C142.46 170.729 142.332 170.648 142.191 170.596C141.338 170.311 140.033 171.284 139.554 171.933C139.526 171.972 139.266 172.422 139.106 172.715C139.176 172.531 139.242 172.355 139.312 172.164C139.449 171.792 139.573 171.417 139.702 171.011C139.76 170.811 139.819 170.62 139.881 170.413C139.943 170.206 139.986 169.995 140.041 169.783C140.158 169.295 140.251 168.795 140.333 168.287C140.66 168.404 141.825 168.81 142.425 168.767C143.025 168.724 143.78 168.505 144.127 167.986C144.215 167.862 144.276 167.722 144.305 167.573C144.335 167.424 144.333 167.271 144.299 167.123C144.265 166.975 144.2 166.836 144.109 166.715C144.017 166.595 143.901 166.495 143.769 166.422C142.966 166.008 141.529 166.77 140.96 167.341C140.921 167.376 140.57 167.833 140.364 168.087C140.411 167.778 140.461 167.474 140.5 167.165C140.609 166.266 140.695 165.355 140.785 164.429C140.812 164.152 140.839 163.874 140.87 163.597C140.987 163.64 142.358 164.155 143.032 164.105C143.632 164.066 144.384 163.843 144.735 163.323C144.822 163.199 144.883 163.058 144.912 162.91C144.942 162.761 144.939 162.607 144.905 162.459C144.871 162.312 144.805 162.173 144.714 162.052C144.622 161.931 144.506 161.832 144.372 161.76C143.593 161.345 142.136 162.107 141.564 162.678C141.521 162.721 140.999 163.378 140.874 163.55C140.941 162.94 141.011 162.33 141.104 161.736C141.224 160.928 141.397 160.129 141.622 159.344C141.677 159.364 143.106 159.907 143.796 159.856C144.396 159.817 145.151 159.594 145.498 159.075C145.586 158.951 145.647 158.81 145.676 158.662C145.706 158.513 145.704 158.36 145.67 158.212C145.636 158.064 145.571 157.925 145.48 157.804C145.389 157.684 145.273 157.584 145.14 157.511C144.337 157.097 142.9 157.859 142.331 158.43C142.284 158.477 141.724 159.18 141.63 159.317C141.63 159.27 141.653 159.223 141.665 159.176C141.914 158.397 142.23 157.641 142.612 156.917C142.814 156.526 143.032 156.135 143.254 155.78C143.512 155.909 144.688 156.483 145.315 156.507C145.942 156.53 146.686 156.397 147.091 155.901C147.19 155.788 147.263 155.655 147.308 155.512C147.352 155.368 147.366 155.217 147.348 155.068C147.33 154.919 147.282 154.775 147.205 154.646C147.129 154.517 147.026 154.405 146.904 154.318C146.153 153.818 144.641 154.42 144.01 154.924C143.979 154.951 143.66 155.268 143.434 155.502C143.535 155.342 143.636 155.174 143.737 155.025C144.127 154.455 144.517 153.955 144.836 153.517C145.031 153.267 145.226 153.048 145.385 152.845C145.701 152.845 146.978 152.798 147.536 152.536C148.093 152.274 148.704 151.801 148.837 151.176C148.872 151.03 148.876 150.878 148.849 150.73C148.822 150.582 148.765 150.442 148.68 150.318C148.596 150.193 148.486 150.089 148.359 150.009C148.231 149.93 148.089 149.879 147.941 149.859C147.045 149.761 145.993 150.992 145.654 151.731C145.623 151.797 145.296 152.845 145.311 152.845H145.331C145.163 153.036 144.98 153.235 144.789 153.478C144.439 153.912 144.049 154.404 143.656 154.967C143.23 155.57 142.839 156.198 142.487 156.847C142.086 157.573 141.75 158.333 141.482 159.118C141.483 159.127 141.483 159.136 141.482 159.145C141.482 158.879 141.482 158.137 141.482 158.082C141.377 157.3 140.703 155.792 139.819 155.627C139.671 155.605 139.52 155.614 139.376 155.653C139.231 155.693 139.097 155.762 138.981 155.858C138.866 155.953 138.771 156.071 138.704 156.205C138.637 156.339 138.599 156.486 138.592 156.636C138.537 157.273 138.981 157.91 139.445 158.312C139.951 158.766 141.357 159.204 141.47 159.239C141.217 160.044 141.018 160.865 140.874 161.697C140.789 162.182 140.718 162.67 140.652 163.163C140.652 162.932 140.652 162.729 140.652 162.702C140.547 161.9 139.873 160.411 138.993 160.247C138.845 160.224 138.693 160.232 138.549 160.272C138.404 160.311 138.269 160.38 138.153 160.476C138.037 160.571 137.942 160.689 137.875 160.824C137.807 160.958 137.769 161.105 137.762 161.255C137.707 161.892 138.171 162.53 138.619 162.928C139.067 163.327 140.263 163.737 140.567 163.839L140.496 164.406C140.387 165.312 140.282 166.219 140.154 167.106C140.111 167.419 140.052 167.724 139.998 168.029C139.998 167.825 139.998 167.638 139.998 167.638C139.897 166.856 139.219 165.347 138.338 165.183C138.19 165.16 138.039 165.168 137.894 165.208C137.75 165.247 137.615 165.317 137.499 165.412C137.382 165.507 137.288 165.626 137.22 165.76C137.153 165.894 137.114 166.041 137.107 166.192C137.057 166.829 137.516 167.466 137.964 167.864C138.549 168.259 139.192 168.56 139.869 168.756C139.803 169.068 139.737 169.381 139.659 169.678C139.604 169.881 139.562 170.069 139.491 170.284C139.421 170.499 139.363 170.675 139.301 170.878C139.164 171.249 139.028 171.636 138.888 172C138.79 172.25 138.693 172.488 138.595 172.73C138.646 172.418 138.728 171.808 138.732 171.757C138.721 171.047 138.53 170.351 138.175 169.737C138.181 169.657 138.181 169.578 138.175 169.498C138.156 169.349 138.106 169.206 138.028 169.077C137.951 168.949 137.847 168.839 137.724 168.753C137.601 168.668 137.461 168.609 137.314 168.581C137.167 168.553 137.015 168.557 136.87 168.591C135.997 168.822 135.444 170.358 135.405 171.163C135.405 171.21 135.432 171.73 135.46 172.058C135.413 171.867 135.374 171.667 135.327 171.488C135.234 171.097 135.132 170.706 135.023 170.315C134.965 170.12 134.903 169.924 134.844 169.717C134.786 169.51 134.704 169.326 134.634 169.107C134.459 168.634 134.264 168.162 134.053 167.693C134.392 167.614 135.584 167.302 136.063 166.938C136.543 166.575 137.045 165.969 137.041 165.332C137.046 165.18 137.018 165.029 136.96 164.889C136.902 164.748 136.815 164.622 136.704 164.518C136.593 164.414 136.462 164.335 136.319 164.286C136.175 164.237 136.023 164.219 135.873 164.234C134.977 164.331 134.198 165.766 134.038 166.555C134.038 166.606 133.972 167.188 133.952 167.505C133.824 167.227 133.695 166.942 133.563 166.665C133.173 165.856 132.729 165.047 132.304 164.241C132.172 163.991 132.047 163.745 131.915 163.499C132.032 163.468 133.473 163.139 133.999 162.717C134.474 162.35 134.981 161.748 134.977 161.111C134.981 160.959 134.953 160.808 134.895 160.667C134.837 160.527 134.75 160.401 134.639 160.297C134.529 160.193 134.398 160.114 134.254 160.065C134.111 160.016 133.959 159.998 133.808 160.013C132.912 160.11 132.133 161.545 131.969 162.334C131.969 162.393 131.884 163.229 131.876 163.444C131.592 162.897 131.315 162.354 131.066 161.803C130.723 161.063 130.429 160.302 130.185 159.524C130.24 159.524 131.743 159.168 132.281 158.742C132.76 158.375 133.263 157.773 133.259 157.136C133.263 156.984 133.236 156.833 133.177 156.693C133.119 156.552 133.032 156.426 132.922 156.322C132.811 156.218 132.68 156.139 132.536 156.09C132.393 156.041 132.241 156.023 132.09 156.038C131.194 156.135 130.415 157.57 130.255 158.359C130.255 158.422 130.162 159.325 130.158 159.485C130.158 159.442 130.123 159.395 130.111 159.352C129.889 158.565 129.736 157.759 129.655 156.945C129.605 156.495 129.581 156.061 129.57 155.639C129.854 155.604 131.151 155.432 131.685 155.108C132.219 154.783 132.772 154.252 132.834 153.615C132.855 153.466 132.844 153.314 132.803 153.17C132.761 153.025 132.69 152.891 132.593 152.777C132.496 152.662 132.377 152.569 132.242 152.504C132.107 152.439 131.959 152.403 131.81 152.399C130.906 152.399 129.979 153.736 129.729 154.506C129.729 154.549 129.624 154.986 129.566 155.307C129.566 155.119 129.566 154.916 129.566 154.74C129.566 154.056 129.613 153.431 129.655 152.876C129.679 152.559 129.71 152.274 129.741 152.008C130.002 151.828 131.046 151.09 131.366 150.562C131.685 150.034 131.938 149.304 131.704 148.71C131.654 148.568 131.574 148.438 131.47 148.33C131.367 148.221 131.241 148.135 131.103 148.078C130.964 148.021 130.815 147.994 130.665 147.998C130.515 148.003 130.367 148.039 130.232 148.104C129.433 148.518 129.223 150.136 129.356 150.933C129.356 151.004 129.667 152.059 129.683 152.051C129.648 152.305 129.613 152.579 129.581 152.88C129.527 153.435 129.468 154.052 129.453 154.748C129.426 155.488 129.443 156.23 129.504 156.968C129.567 157.796 129.705 158.616 129.916 159.418C129.915 159.428 129.915 159.437 129.916 159.446C129.772 159.223 129.356 158.609 129.32 158.566C128.791 157.957 127.416 157.085 126.594 157.437C126.458 157.5 126.336 157.591 126.237 157.704C126.139 157.818 126.065 157.95 126.02 158.094C125.976 158.238 125.962 158.389 125.98 158.538C125.997 158.688 126.046 158.832 126.122 158.961C126.391 159.469 127.127 159.747 127.723 159.833Z" fill="#4D6A67"/>
<path d="M143.188 155.58C143.188 155.58 143.472 154.525 143.484 154.459C143.593 153.677 143.34 152.043 142.53 151.653C142.393 151.591 142.245 151.559 142.095 151.558C141.945 151.558 141.797 151.589 141.66 151.65C141.523 151.711 141.4 151.8 141.3 151.911C141.199 152.023 141.123 152.154 141.077 152.297C140.859 152.895 141.135 153.634 141.466 154.138C141.844 154.736 143.184 155.58 143.188 155.58Z" fill="#4D6A67"/>
<path d="M109.442 159.211C109.974 159.352 110.524 159.412 111.074 159.391C111.074 159.391 110.825 158.629 110.805 158.586C110.552 158.051 109.746 157.171 109.091 157.257C108.983 157.275 108.879 157.315 108.787 157.375C108.695 157.436 108.617 157.515 108.557 157.608C108.498 157.701 108.459 157.806 108.443 157.915C108.427 158.024 108.434 158.136 108.464 158.242C108.548 158.465 108.679 158.666 108.848 158.834C109.017 159.001 109.219 159.13 109.442 159.211Z" fill="#4D6A67"/>
<path d="M109.843 162.576C110.388 162.572 110.929 162.487 111.448 162.322C111.619 162.917 111.828 163.499 112.075 164.066C112.221 164.394 112.373 164.722 112.531 165.05C112.438 164.91 112.352 164.789 112.336 164.773C111.947 164.324 110.946 163.686 110.338 163.948C110.239 163.994 110.15 164.06 110.077 164.142C110.005 164.224 109.951 164.321 109.918 164.426C109.885 164.53 109.875 164.641 109.888 164.75C109.9 164.859 109.936 164.964 109.991 165.058C110.129 165.252 110.308 165.413 110.514 165.53C110.721 165.647 110.951 165.716 111.187 165.734C111.716 165.736 112.241 165.656 112.745 165.496L112.932 165.887C113.232 166.485 113.532 167.059 113.809 167.673C113.906 167.88 113.996 168.091 114.085 168.302C114.004 168.177 113.93 168.076 113.918 168.06C113.528 167.614 112.523 166.977 111.92 167.235C111.82 167.281 111.73 167.347 111.658 167.429C111.585 167.512 111.53 167.609 111.497 167.714C111.465 167.819 111.455 167.93 111.468 168.04C111.481 168.149 111.516 168.255 111.573 168.349C111.711 168.542 111.89 168.703 112.097 168.819C112.303 168.936 112.533 169.006 112.769 169.025C113.284 169.029 113.797 168.951 114.288 168.795C114.374 169.014 114.459 169.229 114.533 169.443C114.58 169.592 114.635 169.729 114.674 169.881C114.713 170.034 114.755 170.174 114.794 170.323C114.865 170.604 114.935 170.897 114.993 171.175C115.036 171.366 115.075 171.566 115.11 171.738C115.016 171.527 114.822 171.12 114.802 171.089C114.487 170.589 113.587 169.807 112.948 169.971C112.842 170.001 112.744 170.053 112.66 170.123C112.576 170.194 112.507 170.281 112.459 170.38C112.411 170.479 112.384 170.587 112.381 170.697C112.377 170.807 112.396 170.917 112.438 171.019C112.546 171.23 112.699 171.416 112.886 171.562C113.073 171.709 113.29 171.813 113.521 171.867C114.056 171.949 114.602 171.949 115.137 171.867C115.2 172.175 115.258 172.476 115.305 172.758C115.414 173.383 115.5 173.93 115.562 174.423H115.99C115.916 173.93 115.815 173.344 115.687 172.687C115.624 172.375 115.554 172.043 115.476 171.699C115.786 171.575 116.087 171.432 116.38 171.273C116.777 171.616 117.218 171.902 117.693 172.125C117.576 172.414 117.459 172.699 117.346 172.961C117.104 173.512 116.879 174.005 116.676 174.423H117.159C117.334 174.032 117.521 173.598 117.72 173.113C117.841 172.82 117.965 172.504 118.086 172.175C118.615 172.3 119.161 172.343 119.703 172.301C119.938 172.261 120.162 172.171 120.359 172.036C120.557 171.901 120.722 171.725 120.844 171.519C120.893 171.42 120.92 171.312 120.925 171.202C120.929 171.092 120.91 170.983 120.869 170.88C120.829 170.778 120.767 170.686 120.688 170.609C120.609 170.533 120.515 170.474 120.412 170.436C119.784 170.225 118.83 170.936 118.464 171.413C118.444 171.441 118.254 171.769 118.137 171.98C118.187 171.847 118.238 171.718 118.289 171.589C118.386 171.32 118.48 171.042 118.577 170.745C118.62 170.6 118.667 170.456 118.709 170.307C118.752 170.159 118.787 170.002 118.826 169.85C118.912 169.49 118.982 169.123 119.04 168.752C119.53 168.946 120.046 169.065 120.571 169.103C120.809 169.103 121.044 169.051 121.259 168.951C121.474 168.85 121.665 168.704 121.818 168.521C121.881 168.431 121.925 168.328 121.946 168.22C121.967 168.112 121.965 168 121.94 167.893C121.915 167.785 121.867 167.684 121.801 167.597C121.734 167.509 121.65 167.436 121.553 167.384C120.969 167.083 119.917 167.642 119.5 168.056C119.473 168.083 119.208 168.416 119.064 168.603C119.099 168.38 119.134 168.158 119.161 167.927C119.243 167.27 119.305 166.606 119.372 165.942C119.391 165.734 119.411 165.531 119.434 165.332C119.94 165.534 120.473 165.659 121.015 165.703C121.253 165.701 121.488 165.648 121.703 165.547C121.918 165.446 122.109 165.299 122.262 165.117C122.325 165.027 122.368 164.925 122.388 164.817C122.409 164.709 122.407 164.598 122.382 164.491C122.357 164.384 122.31 164.283 122.243 164.196C122.177 164.109 122.093 164.036 121.997 163.983C121.413 163.679 120.361 164.238 119.944 164.656C119.909 164.687 119.527 165.168 119.438 165.293C119.485 164.847 119.535 164.402 119.605 163.964C119.697 163.372 119.828 162.788 119.995 162.213C120.503 162.423 121.04 162.554 121.588 162.604C121.825 162.603 122.059 162.549 122.274 162.448C122.488 162.347 122.678 162.2 122.831 162.018C122.894 161.928 122.938 161.825 122.959 161.717C122.981 161.609 122.979 161.498 122.954 161.39C122.93 161.283 122.883 161.182 122.816 161.094C122.75 161.006 122.666 160.933 122.57 160.88C121.982 160.579 120.93 161.138 120.513 161.556C120.482 161.588 120.069 162.104 120.003 162.201C120.003 162.17 120.003 162.135 120.03 162.1C120.209 161.529 120.44 160.975 120.719 160.446C120.867 160.153 121.027 159.88 121.191 159.618C121.663 159.871 122.172 160.05 122.698 160.149C122.934 160.173 123.173 160.146 123.397 160.069C123.622 159.992 123.827 159.868 123.999 159.704C124.075 159.621 124.131 159.523 124.165 159.417C124.2 159.31 124.211 159.198 124.198 159.086C124.185 158.975 124.148 158.868 124.09 158.772C124.033 158.677 123.955 158.594 123.863 158.531C123.31 158.164 122.204 158.606 121.744 158.973C121.721 158.993 121.487 159.223 121.319 159.395C121.393 159.278 121.471 159.157 121.545 159.047C121.822 158.629 122.098 158.266 122.348 157.941L122.737 157.449C123.265 157.454 123.79 157.379 124.295 157.226C124.517 157.14 124.717 157.006 124.881 156.834C125.045 156.662 125.17 156.455 125.246 156.229C125.273 156.123 125.277 156.011 125.258 155.903C125.239 155.795 125.197 155.692 125.136 155.601C125.074 155.51 124.995 155.432 124.901 155.374C124.808 155.316 124.704 155.279 124.595 155.264C123.937 155.194 123.158 156.096 122.916 156.636C122.916 156.683 122.655 157.453 122.671 157.453C122.546 157.597 122.414 157.75 122.281 157.918C122.028 158.234 121.74 158.594 121.452 159.008C121.14 159.451 120.853 159.91 120.591 160.384C120.31 160.908 120.074 161.456 119.886 162.021V162.041C119.886 161.85 119.886 161.306 119.886 161.259C119.808 160.673 119.317 159.587 118.67 159.465C118.562 159.448 118.451 159.453 118.345 159.481C118.239 159.51 118.14 159.56 118.054 159.63C117.969 159.699 117.899 159.786 117.85 159.884C117.8 159.982 117.772 160.09 117.767 160.2C117.776 160.438 117.838 160.671 117.946 160.883C118.054 161.095 118.207 161.281 118.394 161.427C118.851 161.726 119.35 161.956 119.874 162.107C119.69 162.696 119.545 163.297 119.442 163.905C119.379 164.261 119.325 164.617 119.278 164.98C119.278 164.812 119.278 164.66 119.278 164.64C119.2 164.054 118.709 162.963 118.063 162.846C117.954 162.828 117.843 162.834 117.736 162.862C117.63 162.891 117.531 162.942 117.445 163.012C117.36 163.081 117.29 163.169 117.241 163.267C117.192 163.366 117.164 163.474 117.159 163.585C117.167 163.823 117.228 164.056 117.336 164.268C117.445 164.481 117.598 164.666 117.786 164.812C118.228 165.105 118.711 165.329 119.22 165.476C119.22 165.613 119.185 165.754 119.169 165.891C119.087 166.555 119.013 167.22 118.916 167.868C118.885 168.095 118.842 168.322 118.803 168.545C118.803 168.396 118.803 168.271 118.803 168.251C118.729 167.665 118.238 166.575 117.587 166.454C117.479 166.436 117.368 166.442 117.262 166.471C117.156 166.5 117.058 166.551 116.973 166.621C116.888 166.69 116.818 166.777 116.769 166.876C116.72 166.974 116.692 167.082 116.688 167.192C116.697 167.43 116.758 167.663 116.867 167.875C116.975 168.087 117.128 168.273 117.315 168.419C117.743 168.707 118.214 168.926 118.709 169.068C118.659 169.299 118.612 169.526 118.554 169.744C118.515 169.893 118.483 170.041 118.433 170.186L118.293 170.624C118.191 170.897 118.094 171.179 117.989 171.445C117.919 171.628 117.848 171.8 117.778 171.976C117.813 171.749 117.872 171.304 117.876 171.265C117.872 170.747 117.738 170.239 117.486 169.787C117.494 169.729 117.494 169.67 117.486 169.612C117.473 169.502 117.436 169.397 117.38 169.303C117.323 169.209 117.247 169.128 117.157 169.065C117.067 169.002 116.965 168.96 116.857 168.939C116.749 168.919 116.638 168.922 116.532 168.947C115.897 169.119 115.492 170.241 115.461 170.831C115.461 170.866 115.48 171.245 115.5 171.488C115.468 171.347 115.437 171.21 115.402 171.069C115.336 170.788 115.262 170.507 115.18 170.202C115.137 170.061 115.094 169.912 115.048 169.764C115.001 169.615 114.946 169.467 114.896 169.318C114.771 168.971 114.623 168.627 114.471 168.283C114.987 168.176 115.484 167.99 115.944 167.732C116.14 167.599 116.305 167.426 116.429 167.224C116.553 167.021 116.632 166.795 116.66 166.559C116.664 166.449 116.643 166.339 116.601 166.238C116.559 166.136 116.496 166.044 116.417 165.968C116.337 165.893 116.242 165.835 116.138 165.799C116.035 165.762 115.924 165.748 115.815 165.758C115.161 165.828 114.588 166.876 114.471 167.454C114.471 167.493 114.424 167.915 114.409 168.15C114.315 167.947 114.222 167.739 114.121 167.532C113.828 166.942 113.513 166.36 113.201 165.762L112.917 165.219C113.45 165.106 113.963 164.915 114.44 164.652C114.637 164.52 114.803 164.347 114.927 164.145C115.051 163.942 115.129 163.715 115.157 163.479C115.16 163.37 115.14 163.26 115.098 163.159C115.056 163.057 114.994 162.966 114.914 162.89C114.835 162.815 114.741 162.757 114.637 162.72C114.534 162.684 114.424 162.669 114.315 162.678C113.657 162.748 113.088 163.796 112.971 164.374C112.971 164.421 112.905 165.031 112.901 165.187C112.695 164.796 112.492 164.406 112.309 163.987C112.057 163.446 111.841 162.889 111.663 162.319C112.2 162.206 112.717 162.014 113.197 161.748C113.395 161.617 113.562 161.444 113.685 161.241C113.809 161.039 113.887 160.812 113.914 160.575C113.918 160.465 113.898 160.355 113.856 160.253C113.815 160.15 113.752 160.058 113.672 159.982C113.592 159.906 113.497 159.848 113.393 159.811C113.289 159.775 113.179 159.761 113.069 159.77C112.414 159.845 111.846 160.892 111.725 161.47C111.725 161.517 111.659 162.174 111.655 162.295C111.645 162.261 111.633 162.227 111.62 162.193C111.457 161.617 111.347 161.027 111.289 160.431C111.25 160.102 111.234 159.786 111.222 159.481C111.758 159.431 112.284 159.299 112.781 159.09C112.991 158.981 113.176 158.827 113.321 158.638C113.467 158.45 113.569 158.232 113.622 158C113.637 157.891 113.63 157.779 113.599 157.673C113.569 157.568 113.516 157.469 113.445 157.385C113.374 157.301 113.286 157.233 113.187 157.185C113.088 157.137 112.98 157.111 112.87 157.109C112.212 157.109 111.53 158.086 111.351 158.649C111.351 158.68 111.273 159 111.23 159.239C111.23 159.098 111.23 158.953 111.23 158.821C111.23 158.32 111.261 157.863 111.292 157.457C111.312 157.226 111.335 157.015 111.359 156.823C111.784 156.529 112.163 156.174 112.484 155.768C112.621 155.574 112.714 155.351 112.756 155.117C112.799 154.883 112.79 154.642 112.73 154.412C112.694 154.308 112.636 154.213 112.56 154.133C112.485 154.053 112.393 153.989 112.292 153.947C112.19 153.905 112.081 153.885 111.971 153.888C111.861 153.892 111.754 153.918 111.655 153.966C111.07 154.271 110.915 155.455 111.012 156.038C111.012 156.089 111.242 156.862 111.254 156.855C111.23 157.042 111.203 157.245 111.179 157.464C111.141 157.855 111.098 158.328 111.086 158.832C111.069 159.373 111.082 159.915 111.125 160.454C111.173 161.06 111.273 161.66 111.425 162.248C111.425 162.248 111.425 162.248 111.425 162.268C111.32 162.104 111.016 161.654 110.989 161.623C110.599 161.177 109.594 160.54 108.986 160.798C108.886 160.844 108.797 160.91 108.724 160.992C108.652 161.075 108.597 161.172 108.564 161.277C108.531 161.382 108.521 161.493 108.534 161.603C108.547 161.712 108.583 161.818 108.64 161.912C108.78 162.104 108.961 162.263 109.168 162.378C109.376 162.492 109.607 162.56 109.843 162.576Z" fill="#4D6A67"/>
<path d="M121.16 159.465C121.16 159.465 121.37 158.684 121.378 158.641C121.46 158.058 121.273 156.878 120.677 156.589C120.577 156.544 120.469 156.521 120.359 156.521C120.25 156.521 120.142 156.544 120.042 156.588C119.942 156.633 119.852 156.698 119.779 156.78C119.706 156.861 119.651 156.957 119.617 157.062C119.564 157.293 119.561 157.534 119.609 157.767C119.658 158 119.756 158.219 119.897 158.41C120.264 158.822 120.69 159.177 121.16 159.465Z" fill="#4D6A67"/>
<path d="M142.639 22.7819C142.315 24.0679 142.397 25.4234 142.876 26.6601C143.354 27.8969 144.204 28.9538 145.307 29.684C146.411 30.4143 147.714 30.7819 149.036 30.7356C150.357 30.6894 151.631 30.2318 152.682 29.4261L155.147 31.7946C155.084 32.0526 155.089 32.3228 155.161 32.5785C155.233 32.8341 155.371 33.0664 155.56 33.2524L160.917 38.517C161.06 38.6569 161.23 38.7669 161.416 38.841C161.602 38.915 161.801 38.9515 162.001 38.9484C162.202 38.9453 162.399 38.9027 162.583 38.823C162.767 38.7433 162.933 38.628 163.073 38.4838C163.212 38.3395 163.322 38.1692 163.396 37.9824C163.469 37.7956 163.506 37.5961 163.503 37.3952C163.5 37.1944 163.457 36.9961 163.378 36.8117C163.298 36.6272 163.183 36.4603 163.04 36.3205L157.672 31.052C157.478 30.8653 157.239 30.7331 156.979 30.6686C156.718 30.6041 156.445 30.6096 156.187 30.6846L153.776 28.3552C154.358 27.6397 154.776 26.8044 154.999 25.9086C155.204 25.0943 155.247 24.2476 155.125 23.4167C155.004 22.5858 154.72 21.7871 154.291 21.0662C153.862 20.3452 153.295 19.7162 152.624 19.2149C151.952 18.7136 151.189 18.3499 150.377 18.1446C149.566 17.9393 148.722 17.8964 147.894 18.0183C147.066 18.1403 146.27 18.4247 145.551 18.8553C144.832 19.2859 144.205 19.8543 143.706 20.528C143.206 21.2017 142.844 21.9676 142.639 22.7819ZM153.893 25.6194C153.64 26.6262 153.096 27.5353 152.328 28.2317C151.561 28.928 150.605 29.3803 149.581 29.5314C148.557 29.6825 147.512 29.5255 146.577 29.0804C145.642 28.6353 144.86 27.922 144.329 27.0308C143.798 26.1395 143.543 25.1103 143.595 24.0734C143.647 23.0365 144.005 22.0384 144.622 21.2054C145.24 20.3723 146.09 19.7418 147.065 19.3935C148.04 19.0452 149.096 18.9948 150.099 19.2487C151.443 19.5899 152.598 20.4524 153.309 21.6467C154.021 22.8411 154.23 24.2698 153.893 25.6194Z" stroke="#4D6A67" stroke-miterlimit="10"/>
<path d="M24.8374 100.234C23.8711 100.466 23.0007 100.993 22.3467 101.744C21.6928 102.494 21.2876 103.43 21.1874 104.421C21.0873 105.413 21.2971 106.411 21.7877 107.278C22.2784 108.145 23.0256 108.837 23.9258 109.258L23.2091 111.732C23.0154 111.779 22.8373 111.876 22.6924 112.013C22.5475 112.15 22.4409 112.323 22.3832 112.514L20.7277 117.935C20.6461 118.229 20.6818 118.543 20.8273 118.811C20.9728 119.079 21.2165 119.279 21.5068 119.369C21.7996 119.451 22.1127 119.415 22.3796 119.269C22.6465 119.124 22.8462 118.879 22.9364 118.588L24.5803 113.167C24.6387 112.972 24.6443 112.766 24.5963 112.569C24.5484 112.371 24.4487 112.191 24.3076 112.045L25.0165 109.614C25.7201 109.76 26.4472 109.744 27.1441 109.57C27.8409 109.395 28.4898 109.066 29.0426 108.605C29.5954 108.145 30.038 107.566 30.3376 106.911C30.6373 106.256 30.7864 105.542 30.7738 104.822C30.7612 104.101 30.5874 103.392 30.265 102.748C29.9427 102.104 29.4802 101.541 28.9117 101.101C28.3432 100.66 27.6832 100.354 26.9807 100.204C26.2781 100.054 25.551 100.064 24.8529 100.234H24.8374ZM26.8552 108.754C26.0981 108.935 25.3046 108.886 24.5751 108.614C23.8456 108.343 23.2129 107.86 22.7569 107.227C22.3009 106.594 22.0421 105.84 22.0133 105.06C21.9845 104.28 22.187 103.508 22.5951 102.844C23.0032 102.179 23.5986 101.65 24.3061 101.325C25.0136 101 25.8013 100.893 26.5696 101.017C27.3379 101.141 28.0524 101.49 28.6225 102.022C29.1927 102.553 29.593 103.242 29.7729 104.002C30.0134 105.018 29.8431 106.088 29.2993 106.979C28.7555 107.869 27.8823 108.508 26.8708 108.754H26.8552Z" stroke="#4D6A67" stroke-miterlimit="10"/>
<path d="M154.711 64.2145H143.414C142.68 64.2145 141.977 64.5069 141.458 65.0273C140.94 65.5477 140.648 66.2535 140.648 66.9895V73.2624C140.648 73.9984 140.94 74.7042 141.458 75.2246C141.977 75.745 142.68 76.0374 143.414 76.0374H151.283L150.893 79.9457L154.555 76.0374H154.711C155.074 76.0374 155.434 75.9656 155.769 75.8261C156.105 75.6867 156.41 75.4823 156.666 75.2246C156.923 74.9669 157.127 74.661 157.266 74.3243C157.405 73.9877 157.476 73.6268 157.476 73.2624V66.9895C157.476 66.6251 157.405 66.2642 157.266 65.9276C157.127 65.5909 156.923 65.285 156.666 65.0273C156.41 64.7696 156.105 64.5652 155.769 64.4258C155.434 64.2863 155.074 64.2145 154.711 64.2145Z" stroke="#4D6A67" stroke-miterlimit="10"/>
<path d="M25.6552 79.0663H33.3097C33.5558 79.0663 33.7994 79.115 34.0267 79.2094C34.2541 79.3039 34.4606 79.4424 34.6346 79.617C34.8086 79.7915 34.9466 79.9988 35.0408 80.2269C35.135 80.4549 35.1834 80.6994 35.1834 80.9463V85.1947C35.1834 85.4415 35.135 85.686 35.0408 85.9141C34.9466 86.1422 34.8086 86.3494 34.6346 86.524C34.4606 86.6985 34.2541 86.837 34.0267 86.9315C33.7994 87.026 33.5558 87.0746 33.3097 87.0746H27.9808L28.2573 89.7167L25.7604 87.0746H25.6552C25.1583 87.0746 24.6817 86.8765 24.3303 86.524C23.9789 86.1714 23.7815 85.6933 23.7815 85.1947V80.9463C23.7815 80.4477 23.9789 79.9695 24.3303 79.617C24.6817 79.2644 25.1583 79.0663 25.6552 79.0663Z" stroke="#4D6A67" stroke-miterlimit="10"/>
<path d="M82.2363 7.44936H89.8908C90.3877 7.44936 90.8643 7.64742 91.2157 7.99997C91.5671 8.35253 91.7645 8.8307 91.7645 9.32928V13.5777C91.7645 14.0763 91.5671 14.5544 91.2157 14.907C90.8643 15.2595 90.3877 15.4576 89.8908 15.4576H84.5618L84.8384 18.0997L82.3414 15.4576H82.2363C81.7393 15.4576 81.2627 15.2595 80.9113 14.907C80.56 14.5544 80.3625 14.0763 80.3625 13.5777V9.32928C80.3625 8.8307 80.56 8.35253 80.9113 7.99997C81.2627 7.64742 81.7393 7.44936 82.2363 7.44936Z" stroke="#4D6A67" stroke-miterlimit="10"/>
<path d="M71.8357 16.079L90.5649 68.5919L130.785 16.9076" stroke="#4D6A67" stroke-miterlimit="10"/>
<path d="M146.76 50.3515L90.5647 68.5919L128.304 111.154" stroke="#4D6A67" stroke-miterlimit="10"/>
<path d="M47.3177 109.497L90.5648 68.5919L31.6152 58.6412" stroke="#4D6A67" stroke-miterlimit="10"/>
<path d="M151.569 53.1659C153.028 50.37 151.952 46.917 149.165 45.4535C146.378 43.99 142.937 45.0701 141.478 47.866C140.019 50.6619 141.096 54.1148 143.883 55.5783C146.669 57.0419 150.111 55.9618 151.569 53.1659Z" fill="#4D6A67" stroke="#4D6A67" stroke-width="0.5" stroke-miterlimit="10"/>
<path d="M148.408 50.1209H144.696C144.348 50.1209 144.014 50.2597 143.768 50.5067C143.521 50.7537 143.383 51.0887 143.383 51.4381V54.5648C144.29 55.275 145.41 55.6566 146.561 55.6473C147.711 55.6381 148.825 55.2387 149.721 54.5139V51.4381C149.721 51.0887 149.583 50.7537 149.336 50.5067C149.09 50.2597 148.756 50.1209 148.408 50.1209Z" fill="#90CAF9" stroke="#4D6A67" stroke-miterlimit="10"/>
<path d="M146.488 49.5464C146.861 49.5464 147.227 49.4352 147.537 49.2269C147.848 49.0187 148.09 48.7226 148.233 48.3762C148.376 48.0299 148.414 47.6487 148.341 47.281C148.268 46.9133 148.088 46.5756 147.824 46.3105C147.559 46.0454 147.223 45.8648 146.856 45.7917C146.49 45.7186 146.11 45.7561 145.765 45.8996C145.419 46.043 145.124 46.286 144.917 46.5977C144.709 46.9094 144.598 47.2759 144.598 47.6508C144.598 48.1536 144.797 48.6357 145.152 48.9912C145.506 49.3467 145.987 49.5464 146.488 49.5464Z" fill="#90CAF9" stroke="#4D6A67" stroke-miterlimit="10"/>
<path d="M134.136 111.33C135.35 108.419 133.982 105.071 131.081 103.853C128.179 102.635 124.843 104.007 123.628 106.918C122.414 109.829 123.782 113.177 126.683 114.395C129.585 115.614 132.921 114.241 134.136 111.33Z" fill="#4D6A67" stroke="#4D6A67" stroke-width="0.5" stroke-miterlimit="10"/>
<path d="M130.793 108.746H127.081C126.908 108.746 126.738 108.78 126.579 108.845C126.419 108.911 126.275 109.008 126.153 109.13C126.031 109.252 125.934 109.397 125.868 109.556C125.802 109.716 125.768 109.887 125.768 110.06V113.186C126.675 113.897 127.795 114.278 128.946 114.269C130.096 114.26 131.21 113.86 132.106 113.136V110.06C132.106 109.887 132.072 109.716 132.006 109.556C131.94 109.397 131.843 109.252 131.721 109.13C131.599 109.008 131.454 108.911 131.295 108.845C131.136 108.78 130.965 108.746 130.793 108.746Z" fill="#90CAF9" stroke="#4D6A67" stroke-miterlimit="10"/>
<path d="M128.845 108.168C129.219 108.168 129.584 108.057 129.895 107.849C130.205 107.64 130.448 107.344 130.591 106.998C130.734 106.652 130.771 106.27 130.698 105.903C130.625 105.535 130.445 105.197 130.181 104.932C129.917 104.667 129.58 104.486 129.214 104.413C128.847 104.34 128.467 104.378 128.122 104.521C127.777 104.665 127.482 104.908 127.274 105.219C127.067 105.531 126.956 105.898 126.956 106.272C126.956 106.521 127.005 106.768 127.1 106.998C127.195 107.228 127.334 107.437 127.509 107.613C127.685 107.789 127.893 107.928 128.122 108.024C128.351 108.119 128.597 108.168 128.845 108.168Z" fill="#90CAF9" stroke="#4D6A67" stroke-miterlimit="10"/>
<path d="M71.5901 19.7685C73.8232 19.7685 75.6335 17.9522 75.6335 15.7116C75.6335 13.4711 73.8232 11.6548 71.5901 11.6548C69.3569 11.6548 67.5466 13.4711 67.5466 15.7116C67.5466 17.9522 69.3569 19.7685 71.5901 19.7685Z" fill="#4D6A67" stroke="#4D6A67" stroke-width="0.5" stroke-miterlimit="10"/>
<path d="M72.9303 15.4576H70.297C70.0501 15.4576 69.8132 15.556 69.6387 15.7312C69.4641 15.9064 69.366 16.144 69.366 16.3917V18.5843C70.01 19.0865 70.804 19.3562 71.6197 19.3498C72.4354 19.3434 73.2251 19.0613 73.8613 18.5491V16.3722C73.8562 16.1278 73.7559 15.8952 73.5818 15.7242C73.4078 15.5533 73.1739 15.4575 72.9303 15.4576Z" fill="#90CAF9" stroke="#4D6A67" stroke-miterlimit="10"/>
<path d="M71.5825 15.0277C71.8475 15.0277 72.1066 14.9488 72.3269 14.8011C72.5473 14.6534 72.7191 14.4434 72.8205 14.1977C72.9219 13.952 72.9484 13.6817 72.8967 13.4209C72.845 13.1601 72.7174 12.9205 72.53 12.7325C72.3426 12.5445 72.1038 12.4164 71.8439 12.3645C71.5839 12.3127 71.3145 12.3393 71.0697 12.4411C70.8248 12.5428 70.6155 12.7151 70.4683 12.9362C70.321 13.1573 70.2424 13.4173 70.2424 13.6832C70.2424 14.0398 70.3836 14.3817 70.6349 14.6339C70.8862 14.886 71.2271 15.0277 71.5825 15.0277Z" fill="#90CAF9" stroke="#4D6A67" stroke-miterlimit="10"/>
<path d="M50.429 110.396C51.289 108.328 50.3155 105.953 48.2546 105.09C46.1937 104.227 43.8258 105.204 42.9658 107.271C42.1058 109.339 43.0794 111.715 45.1403 112.578C47.2012 113.441 49.5691 112.464 50.429 110.396Z" fill="#4D6A67" stroke="#4D6A67" stroke-width="0.5" stroke-miterlimit="10"/>
<path d="M48.0384 108.559H45.4051C45.2822 108.558 45.1604 108.582 45.0467 108.629C44.9331 108.676 44.8298 108.745 44.7429 108.832C44.656 108.92 44.5871 109.023 44.5403 109.137C44.4935 109.251 44.4697 109.374 44.4702 109.497V111.713C45.1138 112.218 45.9089 112.49 46.726 112.483C47.543 112.477 48.3338 112.193 48.9694 111.678V109.497C48.97 109.374 48.9463 109.252 48.8997 109.138C48.8531 109.024 48.7846 108.921 48.6981 108.834C48.6116 108.747 48.5088 108.678 48.3956 108.63C48.2824 108.583 48.161 108.559 48.0384 108.559Z" fill="#90CAF9" stroke="#4D6A67" stroke-miterlimit="10"/>
<path d="M46.675 108.148C46.94 108.148 47.1991 108.07 47.4195 107.922C47.6398 107.774 47.8116 107.564 47.913 107.319C48.0144 107.073 48.041 106.803 47.9893 106.542C47.9376 106.281 47.8099 106.041 47.6225 105.853C47.4351 105.665 47.1964 105.537 46.9364 105.485C46.6765 105.433 46.407 105.46 46.1622 105.562C45.9173 105.664 45.708 105.836 45.5608 106.057C45.4136 106.278 45.335 106.538 45.335 106.804C45.335 107.161 45.4761 107.503 45.7274 107.755C45.9788 108.007 46.3196 108.148 46.675 108.148Z" fill="#90CAF9" stroke="#4D6A67" stroke-miterlimit="10"/>
<path d="M134.475 16.8916C135.288 14.8049 134.261 12.4518 132.182 11.6357C130.102 10.8196 127.757 11.8497 126.943 13.9363C126.13 16.023 127.156 18.3761 129.236 19.1922C131.316 20.0082 133.661 18.9782 134.475 16.8916Z" fill="#4D6A67" stroke="#4D6A67" stroke-width="0.5" stroke-miterlimit="10"/>
<path d="M132.059 15.141H129.422C129.299 15.141 129.178 15.1652 129.065 15.2121C128.953 15.2591 128.85 15.3279 128.763 15.4146C128.677 15.5014 128.608 15.6043 128.562 15.7177C128.515 15.831 128.491 15.9525 128.491 16.0751V18.2951C129.135 18.7976 129.93 19.0675 130.746 19.0611C131.563 19.0547 132.353 18.7724 132.99 18.2599V16.0751C132.99 15.9525 132.966 15.831 132.919 15.7177C132.872 15.6043 132.804 15.5014 132.717 15.4146C132.631 15.3279 132.528 15.2591 132.415 15.2121C132.302 15.1652 132.181 15.141 132.059 15.141Z" fill="#90CAF9" stroke="#4D6A67" stroke-miterlimit="10"/>
<path d="M130.695 14.7306C130.961 14.7306 131.22 14.6518 131.44 14.5041C131.66 14.3563 131.832 14.1463 131.934 13.9007C132.035 13.655 132.061 13.3847 132.01 13.1239C131.958 12.8631 131.83 12.6235 131.643 12.4355C131.456 12.2474 131.217 12.1194 130.957 12.0675C130.697 12.0156 130.428 12.0423 130.183 12.144C129.938 12.2458 129.729 12.4181 129.581 12.6392C129.434 12.8603 129.355 13.1203 129.355 13.3862C129.355 13.7427 129.497 14.0847 129.748 14.3369C129.999 14.589 130.34 14.7306 130.695 14.7306Z" fill="#90CAF9" stroke="#4D6A67" stroke-miterlimit="10"/>
<path d="M37.9187 60.5511C39.5038 56.7825 37.7438 52.4382 33.9877 50.8479C30.2316 49.2575 25.9017 51.0233 24.3166 54.7919C22.7315 58.5605 24.4915 62.9048 28.2476 64.4952C32.0037 66.0855 36.3336 64.3197 37.9187 60.5511Z" fill="#4D6A67" stroke="#4D6A67" stroke-width="0.5" stroke-miterlimit="10"/>
<path d="M33.5669 57.1716H28.756C28.3052 57.1716 27.8728 57.351 27.5537 57.6705C27.2345 57.99 27.0547 58.4234 27.0537 58.8757V62.9248C28.2298 63.8428 29.6802 64.336 31.1703 64.3247C32.6604 64.3133 34.1032 63.7981 35.2653 62.8622V58.8757C35.2653 58.4237 35.0863 57.9903 34.7678 57.6707C34.4493 57.3512 34.0173 57.1716 33.5669 57.1716Z" fill="#90CAF9" stroke="#4D6A67" stroke-miterlimit="10"/>
<path d="M31.0699 56.4212C31.5537 56.4212 32.0267 56.2773 32.429 56.0076C32.8313 55.7379 33.1448 55.3546 33.33 54.9061C33.5151 54.4576 33.5636 53.9641 33.4692 53.4879C33.3748 53.0118 33.1418 52.5745 32.7997 52.2312C32.4576 51.888 32.0217 51.6542 31.5471 51.5595C31.0726 51.4648 30.5807 51.5134 30.1337 51.6992C29.6867 51.8849 29.3046 52.1995 29.0358 52.6032C28.767 53.0068 28.6235 53.4813 28.6235 53.9668C28.6235 54.6177 28.8813 55.242 29.34 55.7023C29.7988 56.1626 30.4211 56.4212 31.0699 56.4212Z" fill="#90CAF9" stroke="#4D6A67" stroke-miterlimit="10"/>
<path d="M55.132 28.2145C55.132 28.1911 55.132 28.1676 55.132 28.1442C55.0216 27.1299 54.6234 26.1688 53.9847 25.3748C53.346 24.5809 52.4936 23.9875 51.5288 23.6652C50.5496 23.3318 49.4924 23.3058 48.4981 23.5909C48.7182 22.8409 48.7936 22.0556 48.7202 21.2772C48.5755 19.7206 47.8463 18.2774 46.6804 17.2402C45.5145 16.203 43.9992 15.6494 42.4416 15.6917C40.8839 15.7339 39.4006 16.3689 38.2923 17.4677C37.184 18.5666 36.5336 20.0472 36.4729 21.6094C36.3833 21.6094 36.2937 21.6094 36.2041 21.6094C34.5749 21.6094 33.0124 22.2587 31.8603 23.4146C30.7083 24.5705 30.0611 26.1382 30.0611 27.7729C30.0595 28.3249 30.1329 28.8745 30.2792 29.4066C30.4853 30.1212 30.9184 30.7488 31.5125 31.1939C32.1066 31.639 32.8294 31.8774 33.5708 31.8728H51.7158C52.1847 31.875 52.6491 31.7801 53.0799 31.594C53.5106 31.4079 53.8985 31.1346 54.2191 30.7912C54.5398 30.4479 54.7864 30.0418 54.9435 29.5984C55.1005 29.1551 55.1647 28.6839 55.132 28.2145Z" stroke="#4D6A67" stroke-miterlimit="10"/>
<path d="M148.322 90.7758C148.321 90.7628 148.321 90.7497 148.322 90.7367C148.263 90.188 148.048 89.668 147.703 89.2384C147.358 88.8088 146.897 88.4878 146.375 88.3135C145.846 88.1327 145.275 88.1191 144.739 88.2744C144.859 87.8693 144.902 87.4448 144.863 87.0238C144.806 86.1668 144.42 85.3653 143.787 84.7873C143.154 84.2092 142.322 83.8994 141.466 83.9226C140.61 83.9458 139.797 84.3004 139.196 84.9119C138.594 85.5235 138.252 86.3447 138.241 87.2036H138.097C137.217 87.2046 136.374 87.5559 135.753 88.1802C135.131 88.8046 134.782 89.651 134.782 90.5335C134.783 90.8304 134.822 91.126 134.899 91.4129C135.009 91.7995 135.243 92.1393 135.563 92.3806C135.884 92.6219 136.274 92.7514 136.675 92.7495H146.468C146.722 92.7523 146.974 92.7023 147.208 92.6026C147.442 92.5029 147.652 92.3556 147.826 92.1702C148.001 91.9848 148.135 91.7651 148.22 91.5251C148.305 91.2851 148.34 91.03 148.322 90.7758Z" stroke="#4D6A67" stroke-miterlimit="10"/>
<path d="M62.1943 120.894C62.1943 120.894 62.1943 120.87 62.1943 120.859C62.1356 120.31 61.9208 119.789 61.5754 119.36C61.2301 118.93 60.7688 118.609 60.2466 118.435C59.7181 118.255 59.147 118.241 58.6105 118.396C58.7299 117.991 58.7709 117.566 58.7313 117.146C58.6479 116.338 58.2757 115.587 57.6835 115.033C57.0912 114.479 56.319 114.159 55.5098 114.132C54.6401 114.111 53.797 114.434 53.1628 115.032C52.5286 115.629 52.1543 116.453 52.1208 117.325H51.9766C51.5406 117.325 51.1088 117.411 50.7059 117.578C50.303 117.745 49.937 117.99 49.6287 118.3C49.3204 118.609 49.0759 118.976 48.9093 119.38C48.7427 119.785 48.6572 120.218 48.6577 120.655C48.658 120.953 48.6986 121.248 48.7785 121.535C48.8877 121.922 49.1207 122.263 49.4416 122.504C49.7626 122.746 50.1537 122.875 50.5548 122.871H60.344C60.598 122.874 60.8497 122.823 61.0833 122.723C61.3168 122.623 61.5272 122.475 61.701 122.289C61.8749 122.103 62.0084 121.884 62.0934 121.643C62.1783 121.403 62.2126 121.148 62.1943 120.894Z" stroke="#4D6A67" stroke-miterlimit="10"/>
<path d="M117.938 19.0885C117.94 19.0768 117.94 19.065 117.938 19.0533C117.88 18.5042 117.666 17.9834 117.32 17.5536C116.975 17.1238 116.513 16.8031 115.99 16.6301C115.462 16.448 114.891 16.433 114.354 16.5871C114.475 16.1835 114.516 15.7599 114.475 15.3404C114.417 14.4833 114.032 13.6819 113.398 13.1039C112.765 12.5258 111.934 12.216 111.078 12.2392C110.222 12.2624 109.408 12.6169 108.807 13.2285C108.206 13.8401 107.864 14.6613 107.853 15.5201H107.709C107.198 15.5214 106.696 15.6404 106.239 15.8681C105.782 16.0957 105.383 16.4258 105.074 16.8329C104.765 17.2399 104.553 17.7129 104.455 18.2152C104.358 18.7175 104.376 19.2356 104.51 19.7295C104.621 20.1161 104.854 20.4559 105.175 20.6972C105.495 20.9385 105.886 21.068 106.287 21.0661H116.08C116.335 21.0701 116.588 21.0207 116.822 20.9212C117.057 20.8217 117.269 20.6743 117.443 20.4882C117.618 20.3022 117.752 20.0816 117.838 19.8406C117.923 19.5996 117.957 19.3435 117.938 19.0885Z" stroke="#4D6A67" stroke-miterlimit="10"/>
<path d="M120.234 97.5562C136.765 80.9697 136.765 54.0778 120.234 37.4913C103.702 20.9049 76.8993 20.9049 60.3678 37.4913C43.8363 54.0778 43.8363 80.9697 60.3678 97.5562C76.8993 114.143 103.702 114.143 120.234 97.5562Z" fill="white" stroke="#4D6A67" stroke-miterlimit="10"/>
<path d="M88.7769 47.8619L92.797 49.6754L93.8994 51.4889L95.7108 52.1963L95.9095 54.1114L95.2083 55.2175L93.802 55.5223L90.787 54.3107V53.9199L92.4932 53.2125L91.8933 51.098L89.1665 50.0897L87.9628 48.4755L88.7769 47.8619ZM114.097 94.4302L110.884 93.1208L106.965 91.7099H103.848L100.935 91.1041L97.7169 91.8076L95.9095 91.9092H94.8071L92.6957 93.1208L90.6701 93.926L87.9433 92.2141L88.6445 89.3884L86.9383 88.6848H84.9283L84.6283 87.7781L84.827 85.9607L84.1258 84.9563L82.7195 85.1556L82.33 86.1639L80.6238 86.2656L79.1163 84.4521L78.5125 82.0328L80.02 79.207L82.9338 79.4103L83.7402 80.1177H84.9438L86.4514 79.207L87.7563 79.5979L89.5638 82.7246L90.2689 82.623L90.0663 80.3053L89.5015 79.1093L89.7002 77.1942L93.4164 75.5801L93.9189 71.8515L95.5277 70.5383L96.8327 68.2206L97.8377 68.0213L100.148 66.5087L100.249 65.7036L98.6441 65.8013L98.3402 64.9962H97.2378L95.5277 65.387L96.3302 64.0777L99.8361 63.0694L100.639 62.1626L102.045 64.3787L102.952 65.2854L104.359 64.8946L103.755 63.5853L101.644 62.0728L99.2323 59.3369L96.7236 57.6211L94.3123 57.2303L93.1048 56.0226L91.4959 55.6318L91.2973 56.0226L91.0947 58.9461L91.4843 59.9505L90.5805 63.1788L88.5783 61.5764L88.8782 60.1655L86.7747 59.1493L85.8632 58.0589L86.3657 55.5419L89.2794 53.4235L89.482 51.0042L88.3757 51.1059L87.6706 50.1991L87.3707 48.6866L86.6656 48.585L86.2761 50.1991L85.1737 50.3984L84.6712 46.8809L83.8531 46.3337L82.4469 45.7279L80.842 46.5331L82.8481 48.4482L83.2376 50.1639L79.6188 47.4281L77.1062 44.6922L76.9076 41.9564L74.3093 41.206L72.2993 42.5192C71.8149 42.8134 71.3156 43.0821 70.8034 43.3243C70.0104 43.514 69.2044 43.6446 68.3922 43.7151L68.0026 45.4309L65.6926 45.5286L65.8952 46.6386L69.6114 47.2444L71.5202 49.3588V52.8764L70.4139 56.0031L70.6164 59.3291L67.8039 64.2653L67.2002 71.6248L68.0766 75.881L69.3816 79.1093L70.8891 79.3087L70.3866 77.6984L69.5842 76.4868L69.0816 74.2708L69.9854 74.0675L71.3916 77.6984L72.3967 80.9228V83.5414L74.3054 85.863L77.7217 88.38L82.9455 89.7948L84.5543 91.3035L85.758 92.9176L87.5694 94.0276L89.7781 94.6295L91.9868 94.5318C91.9868 94.5318 91.8894 95.5401 91.8894 96.0443C91.8894 96.5485 90.4831 98.2603 90.4831 98.2603L89.3807 100.269L90.1832 102.485L92.3958 103.392L95.5121 106.62L96.9184 107.222V108.735L97.0937 109.438C104.908 108.171 112.208 104.723 118.16 99.4876L118.215 98.7567L120.942 93.8165L119.637 92.9098L114.097 94.4302ZM124.56 54.6156L123.454 52.6966L122.048 50.4805L121.658 47.4554L123.466 47.7603L123.567 46.7519L122.258 46.6503L123.364 46.1461L124.572 45.4426V44.4343L123.364 42.8201L123.107 40.651C117.269 33.4822 109.257 28.423 100.289 26.243C91.3219 24.063 81.8901 24.8816 73.429 28.5741L75.7428 30.2195L74.3093 32.033L72.4006 32.4238L72.2019 35.1597L71.3955 35.4607L70.3905 36.5628L70.4918 38.3763L72.2019 38.5795L71.4968 40.2914H73.2069L76.1168 36.5628L76.4206 34.9487L79.2331 34.7493L79.9343 33.5377L82.8481 33.2368L83.1519 31.521L85.2594 31.4233C85.2594 31.4233 86.7669 30.6143 87.0707 30.6143C87.6509 30.7407 88.2211 30.9092 88.7769 31.1185L90.2845 32.33H92.3958L94.2033 31.2201L96.5133 31.4233C96.8457 31.6401 97.225 31.7741 97.6196 31.8141C98.1221 31.8141 99.6296 31.1067 99.6296 31.1067L102.539 32.9202L103.747 33.8309V35.3395L105.255 35.5427L105.757 34.636L107.062 35.2418L106.961 36.0469L103.95 36.852L105.656 39.072L109.271 41.0887L110.778 43.1015L112.991 43.3048L113.493 42.2964L114.296 42.0932L111.682 40.0803L110.077 39.8771L111.382 39.4863L110.178 37.7705L111.885 37.6728L114.093 38.8805L114.596 41.2998L115.702 42.6091L116.606 45.5325L118.819 47.1467V50.4727L121.128 51.9852L121.027 53.0952L120.727 54.4045L121.327 56.218L121.53 57.1248L123.236 57.4296L124.042 55.7138L124.56 54.6156ZM125.865 44.4538V45.0323L125.339 46.6503L125.639 48.0612L126.746 48.4521V50.3672L125.542 49.863L125.246 55.323L124.042 57.539L124.845 60.3648L126.15 61.5725V67.0168L127.459 71.2496L128.865 74.474L131.175 75.0798L131.977 73.0631L132.304 72.8051C132.522 71.0535 132.631 69.2901 132.632 67.5249C132.644 59.3393 130.288 51.3261 125.85 44.4577L125.865 44.4538ZM102.656 43.8246L96.0341 40.9011L93.1203 41.0027L92.4192 42.9178L91.2116 41.6046L89.0029 42.1088L88.8003 45.4387L90.6078 46.748L91.9167 44.8329L93.3969 46.3337L96.5133 49.0696L97.1171 51.9931L99.727 55.3191L103.95 54.6156L103.848 53.103L102.945 51.3873L102.746 47.3577L103.751 45.642L102.656 43.8246ZM108.083 46.0406L106.575 45.6498L105.27 46.7598L105.971 49.6832H107.28L108.083 46.0406ZM117.432 47.9557L114.015 46.1422L113.31 44.9345L112.508 45.2355L113.209 47.2522L113.813 49.8708L115.32 50.4766L115.62 50.0858L114.717 48.5732L117.33 49.5816L117.432 47.9557ZM88.0952 84.3465L87.7057 84.7374L90.7208 85.6441L91.9283 87.0551L93.8371 87.2583L94.5383 86.1483L92.2283 85.7575L88.0952 84.3465ZM97.0547 86.2617L94.9434 86.8675L95.2472 87.6726H97.8572L98.3597 86.8675L97.456 86.9652L97.0547 86.2617Z" fill="#90CAF9" stroke="#4D6A67" stroke-miterlimit="10"/>
<path d="M120.275 120.202C120.24 121.301 120.371 122.398 120.665 123.458C121.128 124.943 121.588 126.338 122.052 126.897C122.515 127.456 123.259 126.526 122.609 125.408C121.958 124.29 122.332 123.086 122.702 123.086C123.072 123.086 126.037 124.943 126.5 125.595C126.964 126.248 128.354 127.921 128.354 126.803C128.354 125.685 126.224 123.364 125.853 122.711C125.483 122.058 123.442 119.272 123.442 119.272L120.275 120.202Z" fill="white" stroke="#4D6A67" stroke-linejoin="round"/>
<path d="M121.588 116.759L123.442 119.272L119.921 121.222L118.253 119.178L121.588 116.759Z" fill="#90CAF9" stroke="#4D6A67" stroke-linejoin="round"/>
<path d="M101.943 168.826C101.943 168.826 100.553 171.894 99.9955 172.734C99.4384 173.575 98.9749 173.942 98.0477 174.13C97.1206 174.317 95.5469 174.501 95.5469 175.243C95.5577 175.705 95.6923 176.154 95.9364 176.545C95.9364 176.545 100.292 177.475 101.78 177.104C103.268 176.733 104.744 174.685 104.744 174.685L105.671 175.243L108.359 172.641C108.19 171.726 107.873 170.845 107.42 170.034C106.587 168.361 106.123 167.153 106.123 167.153C106.123 167.153 104.074 168.826 101.943 168.826Z" fill="#616161" stroke="#4D6A67" stroke-linejoin="round"/>
<path d="M107.767 170.804C106.793 171.722 104.541 173.93 103.926 174.474C103.147 175.165 101.55 176.549 100.327 176.549C99.4462 176.549 96.9882 176.193 95.6521 175.99C95.7119 176.183 95.7956 176.369 95.9014 176.541C95.9014 176.541 100.256 177.471 101.745 177.1C103.233 176.729 104.709 174.681 104.709 174.681L105.636 175.24L108.324 172.637C108.222 172.003 108.034 171.387 107.767 170.804Z" stroke="#4D6A67" stroke-linejoin="round"/>
<path d="M94.7173 156.46C94.7173 156.46 96.478 160.177 98.2232 162.408C99.9683 164.64 101.928 169.662 101.928 169.662C101.928 169.662 103.505 170.221 104.616 169.381C105.321 168.804 105.838 168.028 106.1 167.153C106.1 167.153 103.875 160.271 103.042 157.296C102.208 154.322 100.167 147.811 99.2399 146.232C98.5375 145.069 97.7702 143.947 96.9416 142.87C96.9416 142.87 95.921 149.007 95.4574 151.328C94.9939 153.65 94.7173 156.46 94.7173 156.46Z" fill="#4D6A67" stroke="#4D6A67" stroke-linejoin="round"/>
<path d="M86.4667 113.691L86.5602 119.639C86.5602 119.639 85.002 130.614 86.2836 136.191C87.5652 141.768 89.6181 147.916 89.6181 147.916C89.6181 147.916 88.6014 158.144 88.2274 160.654C87.8535 163.163 86.2797 167.907 86.2797 167.907C86.2797 167.907 88.9676 169.303 89.4311 169.303H90.3582C90.3582 169.303 93.1357 161.771 93.6927 160.654C94.2498 159.536 96.1936 157.402 96.8441 152.751C97.4947 148.1 97.6816 143.261 97.6816 143.261C97.6816 143.261 102.313 137.309 103.427 135.445C104.541 133.58 106.298 129.77 106.298 129.77C106.298 129.77 108.34 124.47 108.059 119.358C107.779 114.246 106.209 111.643 106.209 111.643C106.209 111.643 97.1246 113.78 92.863 113.78C88.6014 113.78 86.4667 113.691 86.4667 113.691Z" fill="#4D6A67" stroke="#4D6A67" stroke-linejoin="round"/>
<path d="M88.8312 80.2975C88.8312 80.2975 90.6308 82.1031 90.3582 82.7324C90.0855 83.3616 85.4188 83.6352 84.4293 84.8077C83.4399 85.9802 79.2172 100.856 79.2172 100.856C79.2172 100.856 74.1843 99.4094 73.7364 99.0498C73.2884 98.6903 72.7469 98.96 72.4781 100.043C72.2094 101.125 69.5137 103.56 69.8721 104.189C70.2305 104.819 75.1738 107.254 77.6006 107.887C79.0782 108.268 80.5821 108.539 82.0999 108.696L81.7415 113.296C81.7415 113.296 86.3225 115.911 95.2197 114.738C104.117 113.566 107.81 111.674 107.81 111.674L106.735 102.388C106.735 102.388 112.578 113.386 113.563 115.285C114.549 117.185 115.807 119.975 116.886 120.335C117.965 120.694 121.829 118.17 121.919 117.091C122.009 116.012 118.686 110.779 116.076 106.273C113.466 101.766 109.874 89.0522 109.337 86.3398C108.799 83.6274 107.358 81.3801 105.831 81.0205C104.304 80.661 100.171 80.657 98.3711 80.2975C96.5714 79.9379 94.0588 76.9636 92.8902 73.1764L88.8312 80.2975Z" fill="#90CAF9" stroke="#4D6A67" stroke-miterlimit="10"/>
<path d="M85.606 88.6887C86.0617 87.7194 86.4123 87.0589 86.4123 87.0589" stroke="#4D6A67" stroke-miterlimit="10"/>
<path d="M82.0999 108.696C82.0999 108.696 83.1789 97.0683 83.6269 94.2738C83.9104 92.8916 84.3428 91.5445 84.9162 90.256" stroke="#4D6A67" stroke-miterlimit="10"/>
<path d="M103.747 91.7294C103.614 91.0885 103.49 90.4592 103.388 89.8534" stroke="#4D6A67" stroke-miterlimit="10"/>
<path d="M106.715 102.388C106.715 102.388 105.223 97.9516 104.144 93.4726" stroke="#4D6A67" stroke-miterlimit="10"/>
<path d="M87.9431 83.5062C88.3755 84.4364 89.7623 86.3164 93.9654 86.2421C98.9243 86.16 101.106 82.7246 101.908 80.6336C100.722 80.5852 99.5403 80.4704 98.3673 80.2897C96.5715 79.9301 94.055 76.9558 92.8864 73.1686L88.8313 80.2975C88.8313 80.2975 90.631 82.1031 90.3583 82.7324C90.2336 83.0255 89.1507 83.2444 87.9431 83.5062Z" fill="white" stroke="#4D6A67" stroke-miterlimit="10"/>
<path d="M92.1931 75.7442L90.9699 76.5259L88.8313 80.2857C89.3405 80.799 89.7924 81.3665 90.1791 81.9781C92.1931 79.5744 92.1931 75.7442 92.1931 75.7442Z" fill="#4D6A67" stroke="#4D6A67" stroke-linejoin="round"/>
<path d="M78.4109 71.7381C78.4109 71.7381 80.1171 74.7124 80.5651 76.0647C81.2216 77.7219 82.4722 79.0727 84.0709 79.8519C85.6876 80.5711 86.4978 81.2042 87.9352 81.2941C89.9959 81.4231 91.5268 78.4996 92.337 76.2445C93.1473 73.9894 93.1473 73.6298 93.1473 73.6298C93.1473 73.6298 94.4016 71.7381 94.4016 69.7527C94.4016 67.7672 92.1579 65.516 89.6414 64.3435C87.125 63.171 85.4188 61.4591 82.8127 63.8041C80.2067 66.1492 78.4109 71.7381 78.4109 71.7381Z" fill="white" stroke="#4D6A67" stroke-miterlimit="10"/>
<path d="M82.9023 74.6186C83.0932 75.1409 83.2137 75.6863 83.2607 76.2406C83.2607 76.8737 84.071 77.1434 84.7877 75.7911" stroke="#4D6A67" stroke-miterlimit="10"/>
<path d="M84.967 77.6007C84.967 77.6007 87.2147 77.9603 87.6627 75.2557" stroke="#4D6A67" stroke-miterlimit="10"/>
<path d="M85.4267 71.4919C85.637 71.8515 85.6448 72.2384 85.4267 72.3596C85.2085 72.4807 84.8891 72.2814 84.6788 71.9218C84.4684 71.5623 84.4645 71.1714 84.6788 71.0542C84.893 70.9369 85.2163 71.1323 85.4267 71.4919Z" fill="#4D6A67"/>
<path d="M81.8 73.3015C82.0104 73.6611 82.0182 74.0519 81.8 74.1691C81.5819 74.2864 81.2624 74.091 81.056 73.7314C80.8495 73.3718 80.8378 72.981 81.056 72.8637C81.2741 72.7465 81.5935 72.9341 81.8 73.3015Z" fill="#4D6A67"/>
<path d="M82.8518 70.2881C82.8518 70.2881 83.2414 68.8733 85.7695 69.0609" stroke="#4D6A67" stroke-miterlimit="10"/>
<path d="M80.9664 71.7068C80.9664 71.7068 79.5562 71.7069 79.6497 72.8403" stroke="#4D6A67" stroke-miterlimit="10"/>
<path d="M84.8774 65.2424C84.8774 65.2424 83.7088 66.5947 82.3609 67.947C81.0131 69.2993 78.7694 71.2848 78.7694 73.7158C78.7694 76.1468 78.859 76.4204 78.859 76.4204C78.859 76.4204 74.9947 74.4388 73.9157 71.7303C72.8366 69.0218 75.2635 62.8036 78.2279 60.0052C81.1923 57.2068 84.6982 56.6714 88.5625 56.941C92.4267 57.2107 96.291 61.0878 97.2804 64.9649C98.2699 68.842 96.291 73.0787 95.6599 73.7978C95.0289 74.517 93.0539 74.6108 93.0539 74.6108C93.4755 73.2397 93.5689 71.7882 93.3266 70.3741C92.8747 68.2988 91.6165 68.7521 91.4373 69.6511C91.2581 70.55 91.1685 70.9135 91.1685 70.9135C91.1685 70.9135 89.3727 69.6511 87.4834 68.2988C86.3721 67.5165 85.4756 66.4652 84.8774 65.2424Z" fill="#4D6A67" stroke="#4D6A67" stroke-linejoin="round"/>
<path d="M67.8076 101.668L70.2306 98.061L71.3992 99.2335L67.8076 101.668Z" fill="#90CAF9" stroke="#4D6A67" stroke-linejoin="round"/>
<path d="M76.3737 96.3491L70.7292 96.3726L65.3496 85.9763L70.9941 85.9529L76.3737 96.3491Z" fill="#4D6A67" stroke="#4D6A67" stroke-linejoin="round"/>
<path d="M66.2805 91.0259C66.2805 91.0259 67.7179 92.3782 67.8075 93.0114C67.8971 93.6445 68.6139 96.0755 68.9762 97.2481C69.3384 98.4206 70.6824 99.683 70.6824 99.683L71.851 98.5105L71.3991 96.525C71.8301 96.1418 72.2799 95.7804 72.7469 95.4424C73.2884 95.0828 73.9156 94.0901 73.5572 94.0901C73.2849 94.0984 73.0139 94.1298 72.7469 94.1839C72.7469 94.1839 73.5572 92.9215 73.0196 92.8316C72.6628 92.7733 72.3021 92.7419 71.9406 92.7378C71.9406 92.7378 72.8365 91.6591 72.1198 91.5653C71.403 91.4715 68.8827 92.8277 68.8827 92.8277L67.8075 91.2018C67.5782 91.0701 67.3246 90.9866 67.062 90.9564C66.7995 90.9261 66.5336 90.9498 66.2805 91.0259Z" fill="white" stroke="#4D6A67" stroke-linejoin="round"/>
<path d="M66.5768 90.4319C66.4998 90.4986 66.443 90.5856 66.4127 90.683C66.3824 90.7805 66.3799 90.8844 66.4054 90.9832C66.4309 91.082 66.4835 91.1717 66.5571 91.2421C66.6308 91.3125 66.7226 91.3608 66.8222 91.3816C66.9876 91.4401 67.1653 91.4546 67.338 91.4238C67.5107 91.393 67.6725 91.3178 67.8077 91.2057C68.2557 90.6664 70.0515 89.2242 70.0515 88.5011C70.0515 87.7781 69.2451 88.591 68.8829 88.7747C68.0727 89.2666 67.3017 89.8206 66.5768 90.4319Z" fill="white" stroke="#4D6A67" stroke-linejoin="round"/>
<path d="M71.9407 92.7378C71.9407 92.7378 69.2451 94.0901 68.7932 94.6333" stroke="#4D6A67" stroke-linejoin="round"/>
<path d="M72.751 94.1839C72.751 94.1839 70.5969 95.1727 69.8762 95.9857" stroke="#4D6A67" stroke-linejoin="round"/>
<path d="M72.9262 98.9599L71.6719 97.8773L67.8076 101.665L70.4137 103.65C70.4137 103.65 72.8366 101.305 72.9262 98.9599Z" fill="#90CAF9" stroke="#4D6A67" stroke-linejoin="round"/>
<path d="M97.7752 119.921C97.7752 119.921 93.6032 129.774 92.6761 133.881C91.749 137.989 89.9883 145.782 89.9883 146.247" stroke="#757575" stroke-linejoin="round"/>
<path d="M91.749 122.711L94.1603 125.498" stroke="#757575" stroke-linejoin="round"/>
<path d="M86.2837 167.618C86.2837 167.618 85.7267 168.826 83.0389 169.381C80.351 169.936 77.8501 168.92 77.3866 169.01C76.923 169.1 76.4595 169.94 76.4595 170.686C76.4595 171.433 79.7044 173.473 81.0015 174.126C82.035 174.567 83.129 174.849 84.2464 174.962H84.7061L84.6165 175.892C85.3697 176.193 86.1429 176.441 86.9304 176.635C87.6381 176.74 88.3574 176.74 89.0651 176.635C89.3467 175.446 89.502 174.23 89.5286 173.008C89.5916 171.73 89.8736 170.473 90.3623 169.291L86.2837 167.618Z" fill="#616161" stroke="#4D6A67" stroke-linejoin="round"/>
<path d="M89.3456 175.181C87.5186 174.943 84.149 174.399 82.1039 173.618C79.9381 172.797 77.5112 171.124 76.4828 170.382C76.4673 170.478 76.4595 170.576 76.4595 170.675C76.4595 171.417 79.7044 173.461 81.0015 174.114C82.035 174.555 83.129 174.837 84.2464 174.95H84.7061L84.6165 175.881C85.3697 176.182 86.1429 176.43 86.9304 176.623C87.6381 176.728 88.3574 176.728 89.0651 176.623C89.0651 176.623 89.2131 176.029 89.3456 175.181Z" stroke="#4D6A67" stroke-linejoin="round"/>
</g>
<defs>
<clipPath id="clip0_11_92">
<rect width="180" height="180" fill="white"/>
</clipPath>
</defs>
</svg>
